<svg xmlns="http://www.w3.org/2000/svg" xmlns:xlink="http://www.w3.org/1999/xlink" width="300" zoomAndPan="magnify" viewBox="0 0 224.87999 74.999997" height="100" preserveAspectRatio="xMidYMid meet" version="1.2"><defs><clipPath id="1c416cd3af"><path d="M 39 17 L 70 17 L 70 58 L 39 58 Z M 39 17 "/></clipPath><clipPath id="95a7275310"><path d="M 36.621094 22.425781 L 50.273438 14.53125 L 72.289062 52.609375 L 58.636719 60.5 Z M 36.621094 22.425781 "/></clipPath><clipPath id="527bd19f46"><path d="M 43.445312 18.480469 C 45.257812 17.433594 47.410156 17.148438 49.429688 17.6875 C 51.449219 18.226562 53.171875 19.546875 54.21875 21.359375 L 68.316406 45.738281 C 69.363281 47.550781 69.648438 49.703125 69.105469 51.722656 C 68.566406 53.742188 67.246094 55.464844 65.4375 56.511719 C 63.625 57.558594 61.472656 57.84375 59.453125 57.304688 C 57.433594 56.761719 55.710938 55.441406 54.664062 53.632812 L 40.566406 29.25 C 39.519531 27.441406 39.234375 25.289062 39.777344 23.269531 C 40.316406 21.25 41.636719 19.527344 43.445312 18.480469 Z M 43.445312 18.480469 "/></clipPath><clipPath id="d3dc1debb7"><path d="M 17 17 L 48 17 L 48 58 L 17 58 Z M 17 17 "/></clipPath><clipPath id="7fb3d4cd8c"><path d="M 14.65625 22.425781 L 28.308594 14.53125 L 50.324219 52.609375 L 36.671875 60.5 Z M 14.65625 22.425781 "/></clipPath><clipPath id="fcc19ed337"><path d="M 21.484375 18.480469 C 23.292969 17.433594 25.445312 17.148438 27.464844 17.6875 C 29.484375 18.226562 31.207031 19.546875 32.253906 21.359375 L 46.351562 45.738281 C 47.398438 47.550781 47.683594 49.703125 47.140625 51.722656 C 46.601562 53.742188 45.28125 55.464844 43.472656 56.511719 C 41.660156 57.558594 39.507812 57.84375 37.488281 57.304688 C 35.46875 56.761719 33.746094 55.441406 32.699219 53.632812 L 18.601562 29.25 C 17.554688 27.441406 17.273438 25.289062 17.8125 23.269531 C 18.351562 21.25 19.671875 19.527344 21.484375 18.480469 Z M 21.484375 18.480469 "/></clipPath><clipPath id="866838ed33"><path d="M 9 43.441406 L 28.964844 43.441406 L 28.964844 58 L 9 58 Z M 9 43.441406 "/></clipPath></defs><g id="3f85b828f5"><g clip-rule="nonzero" clip-path="url(#1c416cd3af)"><g clip-rule="nonzero" clip-path="url(#95a7275310)"><g clip-rule="nonzero" clip-path="url(#527bd19f46)"><path style=" stroke:none;fill-rule:nonzero;fill:#013ca4;fill-opacity:1;" d="M 36.621094 22.425781 L 50.273438 14.53125 L 72.257812 52.554688 L 58.605469 60.449219 Z M 36.621094 22.425781 "/></g></g></g><g clip-rule="nonzero" clip-path="url(#d3dc1debb7)"><g clip-rule="nonzero" clip-path="url(#7fb3d4cd8c)"><g clip-rule="nonzero" clip-path="url(#fcc19ed337)"><path style=" stroke:none;fill-rule:nonzero;fill:#0175e4;fill-opacity:1;" d="M 14.65625 22.425781 L 28.308594 14.53125 L 50.292969 52.554688 L 36.640625 60.449219 Z M 14.65625 22.425781 "/></g></g></g><g clip-rule="nonzero" clip-path="url(#866838ed33)"><path style=" stroke:none;fill-rule:nonzero;fill:#73b7ff;fill-opacity:1;" d="M 24.570312 48.605469 C 24.496094 48.238281 24.386719 47.882812 24.246094 47.535156 C 24.105469 47.1875 23.933594 46.855469 23.730469 46.539062 C 23.527344 46.222656 23.296875 45.925781 23.039062 45.652344 C 22.785156 45.378906 22.503906 45.128906 22.203125 44.90625 C 21.898438 44.683594 21.578125 44.492188 21.242188 44.328125 C 20.902344 44.164062 20.550781 44.03125 20.191406 43.933594 C 19.828125 43.835938 19.460938 43.769531 19.085938 43.738281 C 18.710938 43.707031 18.335938 43.707031 17.964844 43.746094 C 17.589844 43.78125 17.222656 43.855469 16.863281 43.957031 C 16.503906 44.0625 16.152344 44.199219 15.820312 44.367188 C 15.484375 44.539062 15.164062 44.734375 14.867188 44.960938 C 14.566406 45.1875 14.292969 45.441406 14.039062 45.71875 C 13.785156 45.996094 13.5625 46.296875 13.363281 46.613281 C 13.164062 46.933594 13 47.269531 12.863281 47.617188 C 12.726562 47.96875 12.621094 48.328125 12.550781 48.695312 C 12.480469 49.066406 12.445312 49.4375 12.445312 49.8125 C 12.445312 49.953125 12.449219 50.09375 12.460938 50.242188 C 11.996094 50.292969 11.550781 50.425781 11.136719 50.644531 C 10.71875 50.867188 10.359375 51.15625 10.050781 51.511719 C 9.746094 51.871094 9.519531 52.273438 9.367188 52.71875 C 9.214844 53.164062 9.152344 53.621094 9.179688 54.09375 C 9.203125 54.5625 9.316406 55.011719 9.511719 55.4375 C 9.710938 55.867188 9.980469 56.242188 10.320312 56.566406 C 10.664062 56.890625 11.054688 57.140625 11.492188 57.3125 C 11.929688 57.488281 12.382812 57.574219 12.851562 57.574219 L 24.289062 57.574219 C 24.578125 57.574219 24.863281 57.546875 25.144531 57.492188 C 25.429688 57.433594 25.707031 57.351562 25.972656 57.246094 C 26.242188 57.136719 26.496094 57.003906 26.738281 56.847656 C 26.980469 56.6875 27.203125 56.507812 27.410156 56.308594 C 27.617188 56.105469 27.804688 55.886719 27.96875 55.652344 C 28.132812 55.414062 28.273438 55.164062 28.390625 54.898438 C 28.507812 54.636719 28.597656 54.363281 28.664062 54.082031 C 28.726562 53.800781 28.761719 53.515625 28.773438 53.226562 C 28.78125 52.9375 28.761719 52.652344 28.71875 52.367188 C 28.671875 52.082031 28.597656 51.804688 28.496094 51.53125 C 28.398438 51.261719 28.273438 51.003906 28.125 50.757812 C 27.972656 50.511719 27.800781 50.28125 27.605469 50.066406 C 27.414062 49.851562 27.199219 49.660156 26.96875 49.488281 C 26.738281 49.316406 26.492188 49.164062 26.230469 49.039062 C 25.972656 48.914062 25.703125 48.816406 25.421875 48.742188 C 25.144531 48.671875 24.859375 48.625 24.570312 48.605469 Z M 24.570312 48.605469 "/></g><g style="fill:#7ed957;fill-opacity:1;"><g transform="translate(74.449234, 54.584528)"><path style="stroke:none" d="M 6.164062 0 L 6.164062 -9.207031 L 9.460938 -9.207031 L 9.460938 -11.328125 L 0.425781 -11.328125 L 0.425781 -9.207031 L 3.738281 -9.207031 L 3.738281 0 Z M 6.164062 0 "/></g></g><g style="fill:#7ed957;fill-opacity:1;"><g transform="translate(85.013028, 54.584528)"><path style="stroke:none" d="M 9.136719 0 L 9.136719 -2.089844 L 3.53125 -2.089844 L 3.53125 -4.722656 L 9.019531 -4.722656 L 9.019531 -6.792969 L 3.53125 -6.792969 L 3.53125 -9.257812 L 9.136719 -9.257812 L 9.136719 -11.328125 L 1.121094 -11.328125 L 1.121094 0 Z M 9.136719 0 "/></g></g><g style="fill:#7ed957;fill-opacity:1;"><g transform="translate(95.593806, 54.584528)"><path style="stroke:none" d="M 6.523438 0.203125 C 9.105469 0.203125 10.53125 -1.171875 11.347656 -2.582031 L 9.273438 -3.585938 C 8.796875 -2.648438 7.78125 -1.9375 6.523438 -1.9375 C 4.550781 -1.9375 3.058594 -3.515625 3.058594 -5.65625 C 3.058594 -7.796875 4.550781 -9.375 6.523438 -9.375 C 7.78125 -9.375 8.796875 -8.644531 9.273438 -7.730469 L 11.347656 -8.746094 C 10.546875 -10.15625 9.105469 -11.515625 6.523438 -11.515625 C 3.210938 -11.515625 0.578125 -9.136719 0.578125 -5.65625 C 0.578125 -2.175781 3.210938 0.203125 6.523438 0.203125 Z M 6.523438 0.203125 "/></g></g><g style="fill:#7ed957;fill-opacity:1;"><g transform="translate(107.940816, 54.584528)"><path style="stroke:none" d="M 11.3125 0 L 11.3125 -11.328125 L 8.882812 -11.328125 L 8.882812 -6.878906 L 3.53125 -6.878906 L 3.53125 -11.328125 L 1.121094 -11.328125 L 1.121094 0 L 3.53125 0 L 3.53125 -4.757812 L 8.882812 -4.757812 L 8.882812 0 Z M 11.3125 0 "/></g></g><g style="fill:#7ed957;fill-opacity:1;"><g transform="translate(121.035093, 54.584528)"><path style="stroke:none" d="M 11.261719 0 L 11.261719 -11.328125 L 8.851562 -11.328125 L 8.851562 -3.992188 L 3.601562 -11.328125 L 1.121094 -11.328125 L 1.121094 0 L 3.53125 0 L 3.53125 -7.609375 L 8.933594 0 Z M 11.261719 0 "/></g></g><g style="fill:#7ed957;fill-opacity:1;"><g transform="translate(134.095398, 54.584528)"><path style="stroke:none" d="M 0.578125 -5.65625 C 0.578125 -2.242188 3.074219 0.203125 6.488281 0.203125 C 9.917969 0.203125 12.417969 -2.242188 12.417969 -5.65625 C 12.417969 -9.070312 9.917969 -11.515625 6.488281 -11.515625 C 3.074219 -11.515625 0.578125 -9.070312 0.578125 -5.65625 Z M 9.9375 -5.65625 C 9.9375 -3.550781 8.578125 -1.9375 6.488281 -1.9375 C 4.398438 -1.9375 3.058594 -3.550781 3.058594 -5.65625 C 3.058594 -7.78125 4.398438 -9.375 6.488281 -9.375 C 8.578125 -9.375 9.9375 -7.78125 9.9375 -5.65625 Z M 9.9375 -5.65625 "/></g></g><g style="fill:#7ed957;fill-opacity:1;"><g transform="translate(147.767099, 54.584528)"><path style="stroke:none" d="M 8.324219 0 L 8.324219 -2.125 L 3.53125 -2.125 L 3.53125 -11.328125 L 1.121094 -11.328125 L 1.121094 0 Z M 8.324219 0 "/></g></g><g style="fill:#7ed957;fill-opacity:1;"><g transform="translate(157.32889, 54.584528)"><path style="stroke:none" d="M 0.578125 -5.65625 C 0.578125 -2.242188 3.074219 0.203125 6.488281 0.203125 C 9.917969 0.203125 12.417969 -2.242188 12.417969 -5.65625 C 12.417969 -9.070312 9.917969 -11.515625 6.488281 -11.515625 C 3.074219 -11.515625 0.578125 -9.070312 0.578125 -5.65625 Z M 9.9375 -5.65625 C 9.9375 -3.550781 8.578125 -1.9375 6.488281 -1.9375 C 4.398438 -1.9375 3.058594 -3.550781 3.058594 -5.65625 C 3.058594 -7.78125 4.398438 -9.375 6.488281 -9.375 C 8.578125 -9.375 9.9375 -7.78125 9.9375 -5.65625 Z M 9.9375 -5.65625 "/></g></g><g style="fill:#7ed957;fill-opacity:1;"><g transform="translate(171.000591, 54.584528)"><path style="stroke:none" d="M 0.578125 -5.65625 C 0.578125 -2.089844 3.296875 0.222656 6.609375 0.222656 C 8.664062 0.222656 10.277344 -0.628906 11.429688 -1.917969 L 11.429688 -6.25 L 6.03125 -6.25 L 6.03125 -4.179688 L 9.054688 -4.179688 L 9.054688 -2.800781 C 8.5625 -2.359375 7.644531 -1.9375 6.609375 -1.9375 C 4.550781 -1.9375 3.058594 -3.515625 3.058594 -5.65625 C 3.058594 -7.796875 4.550781 -9.375 6.609375 -9.375 C 7.796875 -9.375 8.765625 -8.746094 9.292969 -7.949219 L 11.296875 -9.035156 C 10.429688 -10.378906 8.953125 -11.515625 6.609375 -11.515625 C 3.296875 -11.515625 0.578125 -9.242188 0.578125 -5.65625 Z M 0.578125 -5.65625 "/></g></g><g style="fill:#7ed957;fill-opacity:1;"><g transform="translate(183.908051, 54.584528)"><path style="stroke:none" d="M 3.53125 0 L 3.53125 -11.328125 L 1.121094 -11.328125 L 1.121094 0 Z M 3.53125 0 "/></g></g><g style="fill:#7ed957;fill-opacity:1;"><g transform="translate(189.241046, 54.584528)"><path style="stroke:none" d="M 9.136719 0 L 9.136719 -2.089844 L 3.53125 -2.089844 L 3.53125 -4.722656 L 9.019531 -4.722656 L 9.019531 -6.792969 L 3.53125 -6.792969 L 3.53125 -9.257812 L 9.136719 -9.257812 L 9.136719 -11.328125 L 1.121094 -11.328125 L 1.121094 0 Z M 9.136719 0 "/></g></g><g style="fill:#7ed957;fill-opacity:1;"><g transform="translate(199.821825, 54.584528)"><path style="stroke:none" d="M 0.339844 -1.597656 C 1.410156 -0.527344 2.972656 0.203125 5.148438 0.203125 C 8.203125 0.203125 9.683594 -1.359375 9.683594 -3.429688 C 9.683594 -5.945312 7.304688 -6.503906 5.433594 -6.929688 C 4.128906 -7.234375 3.175781 -7.472656 3.175781 -8.238281 C 3.175781 -8.917969 3.753906 -9.394531 4.839844 -9.394531 C 5.945312 -9.394531 7.167969 -9.003906 8.085938 -8.152344 L 9.425781 -9.917969 C 8.304688 -10.957031 6.8125 -11.5 5.011719 -11.5 C 2.34375 -11.5 0.714844 -9.972656 0.714844 -8.085938 C 0.714844 -5.554688 3.089844 -5.042969 4.941406 -4.621094 C 6.25 -4.3125 7.234375 -4.027344 7.234375 -3.175781 C 7.234375 -2.53125 6.589844 -1.902344 5.265625 -1.902344 C 3.703125 -1.902344 2.464844 -2.597656 1.664062 -3.429688 Z M 0.339844 -1.597656 "/></g></g><g style="fill:#0175e4;fill-opacity:1;"><g transform="translate(74.449234, 33.216133)"><path style="stroke:none" d="M 1.46875 0 L 1.46875 -10.125 L 3.640625 -10.125 L 3.9375 -9.078125 C 4.3125 -9.515625 4.765625 -9.84375 5.296875 -10.0625 C 5.828125 -10.28125 6.414062 -10.390625 7.0625 -10.390625 C 8.550781 -10.390625 9.660156 -9.835938 10.390625 -8.734375 C 10.804688 -9.265625 11.320312 -9.671875 11.9375 -9.953125 C 12.5625 -10.242188 13.257812 -10.390625 14.03125 -10.390625 C 15.332031 -10.390625 16.363281 -9.988281 17.125 -9.1875 C 17.894531 -8.382812 18.28125 -7.289062 18.28125 -5.90625 L 18.28125 0 L 15.34375 0 L 15.34375 -5.546875 C 15.34375 -6.265625 15.164062 -6.832031 14.8125 -7.25 C 14.457031 -7.675781 13.976562 -7.890625 13.375 -7.890625 C 12.75 -7.890625 12.25 -7.671875 11.875 -7.234375 C 11.5 -6.796875 11.3125 -6.207031 11.3125 -5.46875 L 11.3125 0 L 8.421875 0 L 8.421875 -5.546875 C 8.421875 -6.265625 8.242188 -6.832031 7.890625 -7.25 C 7.535156 -7.675781 7.054688 -7.890625 6.453125 -7.890625 C 5.828125 -7.890625 5.328125 -7.671875 4.953125 -7.234375 C 4.578125 -6.796875 4.390625 -6.207031 4.390625 -5.46875 L 4.390625 0 Z M 1.46875 0 "/></g></g><g style="fill:#0175e4;fill-opacity:1;"><g transform="translate(97.855794, 33.216133)"><path style="stroke:none" d="M 1.46875 0 L 1.46875 -10.125 L 4.390625 -10.125 L 4.390625 0 Z M 1.046875 -13.40625 C 1.046875 -13.9375 1.222656 -14.375 1.578125 -14.71875 C 1.929688 -15.0625 2.382812 -15.234375 2.9375 -15.234375 C 3.5 -15.234375 3.953125 -15.0625 4.296875 -14.71875 C 4.640625 -14.375 4.8125 -13.9375 4.8125 -13.40625 C 4.8125 -12.863281 4.640625 -12.421875 4.296875 -12.078125 C 3.953125 -11.734375 3.5 -11.5625 2.9375 -11.5625 C 2.382812 -11.5625 1.929688 -11.734375 1.578125 -12.078125 C 1.222656 -12.421875 1.046875 -12.863281 1.046875 -13.40625 Z M 1.046875 -13.40625 "/></g></g><g style="fill:#0175e4;fill-opacity:1;"><g transform="translate(107.574458, 33.216133)"><path style="stroke:none" d="M 1.46875 0 L 1.46875 -10.125 L 3.640625 -10.125 L 3.953125 -8.984375 C 4.359375 -9.460938 4.851562 -9.816406 5.4375 -10.046875 C 6.03125 -10.273438 6.660156 -10.390625 7.328125 -10.390625 C 8.648438 -10.390625 9.6875 -9.976562 10.4375 -9.15625 C 11.1875 -8.332031 11.5625 -7.222656 11.5625 -5.828125 L 11.5625 0 L 8.640625 0 L 8.640625 -5.515625 C 8.640625 -6.253906 8.460938 -6.832031 8.109375 -7.25 C 7.753906 -7.675781 7.257812 -7.890625 6.625 -7.890625 C 5.957031 -7.890625 5.414062 -7.65625 5 -7.1875 C 4.59375 -6.726562 4.390625 -6.097656 4.390625 -5.296875 L 4.390625 0 Z M 1.46875 0 "/></g></g><g style="fill:#0175e4;fill-opacity:1;"><g transform="translate(124.27202, 33.216133)"><path style="stroke:none" d="M 5.5 0.265625 C 4.1875 0.265625 3.148438 -0.144531 2.390625 -0.96875 C 1.640625 -1.800781 1.265625 -2.914062 1.265625 -4.3125 L 1.265625 -10.125 L 4.203125 -10.125 L 4.203125 -4.609375 C 4.203125 -3.859375 4.378906 -3.273438 4.734375 -2.859375 C 5.085938 -2.453125 5.570312 -2.25 6.1875 -2.25 C 6.851562 -2.25 7.382812 -2.476562 7.78125 -2.9375 C 8.1875 -3.40625 8.390625 -4.039062 8.390625 -4.84375 L 8.390625 -10.125 L 11.3125 -10.125 L 11.3125 0 L 9.140625 0 L 8.828125 -1.140625 C 8.429688 -0.660156 7.941406 -0.304688 7.359375 -0.078125 C 6.785156 0.148438 6.164062 0.265625 5.5 0.265625 Z M 5.5 0.265625 "/></g></g><g style="fill:#0175e4;fill-opacity:1;"><g transform="translate(140.911753, 33.216133)"><path style="stroke:none" d="M 5.359375 0.265625 C 4.429688 0.265625 3.625 0.117188 2.9375 -0.171875 C 2.25 -0.460938 1.710938 -0.875 1.328125 -1.40625 C 0.953125 -1.9375 0.765625 -2.554688 0.765625 -3.265625 L 3.640625 -3.265625 C 3.648438 -2.847656 3.8125 -2.515625 4.125 -2.265625 C 4.4375 -2.023438 4.863281 -1.90625 5.40625 -1.90625 C 5.863281 -1.90625 6.21875 -1.988281 6.46875 -2.15625 C 6.726562 -2.332031 6.859375 -2.570312 6.859375 -2.875 C 6.859375 -3.195312 6.6875 -3.460938 6.34375 -3.671875 C 6 -3.878906 5.429688 -4.050781 4.640625 -4.1875 C 3.359375 -4.414062 2.414062 -4.785156 1.8125 -5.296875 C 1.207031 -5.816406 0.90625 -6.492188 0.90625 -7.328125 C 0.90625 -8.316406 1.273438 -9.070312 2.015625 -9.59375 C 2.753906 -10.125 3.804688 -10.390625 5.171875 -10.390625 C 6.515625 -10.390625 7.566406 -10.097656 8.328125 -9.515625 C 9.097656 -8.941406 9.515625 -8.125 9.578125 -7.0625 L 6.78125 -7.0625 C 6.757812 -7.445312 6.601562 -7.742188 6.3125 -7.953125 C 6.019531 -8.160156 5.628906 -8.265625 5.140625 -8.265625 C 4.710938 -8.265625 4.367188 -8.179688 4.109375 -8.015625 C 3.859375 -7.847656 3.734375 -7.617188 3.734375 -7.328125 C 3.734375 -7.015625 3.894531 -6.769531 4.21875 -6.59375 C 4.550781 -6.425781 5.148438 -6.253906 6.015625 -6.078125 C 8.503906 -5.578125 9.75 -4.503906 9.75 -2.859375 C 9.75 -1.890625 9.359375 -1.125 8.578125 -0.5625 C 7.804688 -0.0078125 6.734375 0.265625 5.359375 0.265625 Z M 5.359375 0.265625 "/></g></g><g style="fill:#0175e4;fill-opacity:1;"><g transform="translate(155.315153, 33.216133)"><path style="stroke:none" d="M 6.28125 0.265625 C 5.207031 0.265625 4.25 0.0390625 3.40625 -0.40625 C 2.570312 -0.863281 1.921875 -1.492188 1.453125 -2.296875 C 0.984375 -3.109375 0.75 -4.035156 0.75 -5.078125 C 0.75 -6.109375 0.984375 -7.023438 1.453125 -7.828125 C 1.921875 -8.628906 2.570312 -9.253906 3.40625 -9.703125 C 4.25 -10.160156 5.207031 -10.390625 6.28125 -10.390625 C 7.21875 -10.390625 8.066406 -10.21875 8.828125 -9.875 C 9.597656 -9.539062 10.234375 -9.0625 10.734375 -8.4375 C 11.234375 -7.8125 11.5625 -7.082031 11.71875 -6.25 L 8.90625 -6.25 C 8.664062 -6.757812 8.316406 -7.160156 7.859375 -7.453125 C 7.410156 -7.742188 6.898438 -7.890625 6.328125 -7.890625 C 5.535156 -7.890625 4.890625 -7.628906 4.390625 -7.109375 C 3.890625 -6.585938 3.640625 -5.910156 3.640625 -5.078125 C 3.640625 -4.253906 3.890625 -3.578125 4.390625 -3.046875 C 4.890625 -2.515625 5.535156 -2.25 6.328125 -2.25 C 6.941406 -2.25 7.484375 -2.410156 7.953125 -2.734375 C 8.421875 -3.066406 8.757812 -3.507812 8.96875 -4.0625 L 11.8125 -4.0625 C 11.632812 -3.175781 11.289062 -2.410156 10.78125 -1.765625 C 10.28125 -1.117188 9.644531 -0.617188 8.875 -0.265625 C 8.101562 0.0859375 7.238281 0.265625 6.28125 0.265625 Z M 6.28125 0.265625 "/></g></g><g style="fill:#0175e4;fill-opacity:1;"><g transform="translate(171.704256, 33.216133)"><path style="stroke:none" d="M 5.5 0.265625 C 4.1875 0.265625 3.148438 -0.144531 2.390625 -0.96875 C 1.640625 -1.800781 1.265625 -2.914062 1.265625 -4.3125 L 1.265625 -10.125 L 4.203125 -10.125 L 4.203125 -4.609375 C 4.203125 -3.859375 4.378906 -3.273438 4.734375 -2.859375 C 5.085938 -2.453125 5.570312 -2.25 6.1875 -2.25 C 6.851562 -2.25 7.382812 -2.476562 7.78125 -2.9375 C 8.1875 -3.40625 8.390625 -4.039062 8.390625 -4.84375 L 8.390625 -10.125 L 11.3125 -10.125 L 11.3125 0 L 9.140625 0 L 8.828125 -1.140625 C 8.429688 -0.660156 7.941406 -0.304688 7.359375 -0.078125 C 6.785156 0.148438 6.164062 0.265625 5.5 0.265625 Z M 5.5 0.265625 "/></g></g><g style="fill:#0175e4;fill-opacity:1;"><g transform="translate(188.343989, 33.216133)"><path style="stroke:none" d="M 1.46875 0 L 1.46875 -14.265625 L 4.390625 -14.265625 L 4.390625 0 Z M 1.46875 0 "/></g></g><g style="fill:#0175e4;fill-opacity:1;"><g transform="translate(198.062652, 33.216133)"><path style="stroke:none" d="M 6.25 0.265625 C 5.164062 0.265625 4.207031 0.0390625 3.375 -0.40625 C 2.550781 -0.851562 1.90625 -1.476562 1.4375 -2.28125 C 0.976562 -3.082031 0.75 -4.015625 0.75 -5.078125 C 0.75 -6.128906 0.984375 -7.050781 1.453125 -7.84375 C 1.921875 -8.644531 2.566406 -9.269531 3.390625 -9.71875 C 4.222656 -10.164062 5.1875 -10.390625 6.28125 -10.390625 C 7.4375 -10.390625 8.4375 -10.128906 9.28125 -9.609375 C 10.125 -9.097656 10.765625 -8.378906 11.203125 -7.453125 C 11.648438 -6.535156 11.84375 -5.457031 11.78125 -4.21875 L 3.65625 -4.21875 C 3.800781 -3.53125 4.109375 -3 4.578125 -2.625 C 5.054688 -2.257812 5.632812 -2.078125 6.3125 -2.078125 C 6.789062 -2.078125 7.234375 -2.171875 7.640625 -2.359375 C 8.046875 -2.546875 8.375 -2.804688 8.625 -3.140625 L 11.59375 -3.140625 C 11.15625 -2.078125 10.46875 -1.242188 9.53125 -0.640625 C 8.59375 -0.0351562 7.5 0.265625 6.25 0.265625 Z M 3.6875 -6.078125 L 8.953125 -6.078125 C 8.785156 -6.691406 8.472656 -7.175781 8.015625 -7.53125 C 7.554688 -7.882812 6.988281 -8.0625 6.3125 -8.0625 C 5.664062 -8.0625 5.109375 -7.882812 4.640625 -7.53125 C 4.171875 -7.175781 3.851562 -6.691406 3.6875 -6.078125 Z M 3.6875 -6.078125 "/></g></g></g></svg>